{
  "accessors": [
    {
      "bufferView": 2,
      "componentType": 5126,
      "count": 10451,
      "max": [
        1.0164132118225098,
        0.4411191940307617,
        1.0022004842758179
      ],
      "min": [
        -0.9798040986061096,
        -1.5481624603271484,
        -0.9921927452087402
      ],
      "type": "VEC3"
    },
    {
      "bufferView": 2,
      "byteOffset": 125412,
      "componentType": 5126,
      "count": 10451,
      "max": [
        0.9980486631393433,
        0.9870319962501526,
        0.9999383687973022
      ],
      "min": [
        -0.998473048210144,
        -0.9999966621398926,
        -0.9999077916145325
      ],
      "type": "VEC3"
    },
    {
      "bufferView": 1,
      "componentType": 5126,
      "count": 10451,
      "max": [
        1.0000001192092896,
        1.0000001192092896
      ],
      "min": [
        0.0,
        0.0
      ],
      "type": "VEC2"
    },
    {
      "bufferView": 0,
      "componentType": 5125,
      "count": 59520,
      "type": "SCALAR"
    },
    {
      "bufferView": 2,
      "byteOffset": 250824,
      "componentType": 5126,
      "count": 7936,
      "max": [
        0.993695080280304,
        0.9935951232910156,
        7.947286917442398e-08
      ],
      "min": [
        -0.9936944246292114,
        0.0,
        -0.9935950040817261
      ],
      "type": "VEC3"
    },
    {
      "bufferView": 2,
      "byteOffset": 346056,
      "componentType": 5126,
      "count": 7936,
      "max": [
        0.9896052479743958,
        0.9989685416221619,
        0.0694076418876648
      ],
      "min": [
        -0.9896055459976196,
        -0.6819180250167847,
        -0.9987107515335083
      ],
      "type": "VEC3"
    },
    {
      "bufferView": 1,
      "byteOffset": 83608,
      "componentType": 5126,
      "count": 7936,
      "max": [
        1.0000001192092896,
        1.0000001192092896
      ],
      "min": [
        0.4999999701976776,
        0.5
      ],
      "type": "VEC2"
    },
    {
      "bufferView": 0,
      "byteOffset": 238080,
      "componentType": 5125,
      "count": 11904,
      "type": "SCALAR"
    },
    {
      "bufferView": 2,
      "byteOffset": 441288,
      "componentType": 5126,
      "count": 7936,
      "max": [
        0.993695080280304,
        0.9935951232910156,
        7.947286917442398e-08
      ],
      "min": [
        -0.9936944246292114,
        0.0,
        -0.9935950040817261
      ],
      "type": "VEC3"
    },
    {
      "bufferView": 2,
      "byteOffset": 536520,
      "componentType": 5126,
      "count": 7936,
      "max": [
        0.9896052479743958,
        0.9989685416221619,
        0.0694076418876648
      ],
      "min": [
        -0.9896055459976196,
        0.09937135130167007,
        -0.9947491884231567
      ],
      "type": "VEC3"
    },
    {
      "bufferView": 1,
      "byteOffset": 147096,
      "componentType": 5126,
      "count": 7936,
      "max": [
        1.0000001192092896,
        1.0000001192092896
      ],
      "min": [
        0.4999999701976776,
        0.5
      ],
      "type": "VEC2"
    },
    {
      "bufferView": 0,
      "byteOffset": 285696,
      "componentType": 5125,
      "count": 11904,
      "type": "SCALAR"
    },
    {
      "bufferView": 2,
      "byteOffset": 631752,
      "componentType": 5126,
      "count": 63488,
      "max": [
        0.9935949444770813,
        0.9935951232910156,
        1.390775139498146e-07
      ],
      "min": [
        -0.9935944676399231,
        -0.9935951232910156,
        -0.9872310161590576
      ],
      "type": "VEC3"
    },
    {
      "bufferView": 2,
      "byteOffset": 1393608,
      "componentType": 5126,
      "count": 63488,
      "max": [
        0.9950602650642395,
        0.9992873072624207,
        0.0640733540058136
      ],
      "min": [
        -0.9950599074363708,
        -0.9992873668670654,
        -0.9998497366905212
      ],
      "type": "VEC3"
    },
    {
      "bufferView": 1,
      "byteOffset": 210584,
      "componentType": 5126,
      "count": 63488,
      "max": [
        1.0000001192092896,
        1.0000001192092896
      ],
      "min": [
        0.4999999701976776,
        0.0
      ],
      "type": "VEC2"
    },
    {
      "bufferView": 0,
      "byteOffset": 333312,
      "componentType": 5125,
      "count": 95232,
      "type": "SCALAR"
    },
    {
      "bufferView": 2,
      "byteOffset": 2155464,
      "componentType": 5126,
      "count": 7936,
      "max": [
        0.993695080280304,
        0.9935951232910156,
        7.947286917442398e-08
      ],
      "min": [
        -0.9936944246292114,
        0.0,
        -0.9935950040817261
      ],
      "type": "VEC3"
    },
    {
      "bufferView": 2,
      "byteOffset": 2250696,
      "componentType": 5126,
      "count": 7936,
      "max": [
        0.9896052479743958,
        0.9989685416221619,
        0.0694076418876648
      ],
      "min": [
        -0.9896055459976196,
        0.09937135130167007,
        -0.9947491884231567
      ],
      "type": "VEC3"
    },
    {
      "bufferView": 1,
      "byteOffset": 718488,
      "componentType": 5126,
      "count": 7936,
      "max": [
        1.0000001192092896,
        1.0000001192092896
      ],
      "min": [
        0.4999999701976776,
        0.5
      ],
      "type": "VEC2"
    },
    {
      "bufferView": 0,
      "byteOffset": 714240,
      "componentType": 5125,
      "count": 11904,
      "type": "SCALAR"
    },
    {
      "bufferView": 2,
      "byteOffset": 2345928,
      "componentType": 5126,
      "count": 18603,
      "max": [
        1.2245372533798218,
        0.16943825781345367,
        2.571031093597412
      ],
      "min": [
        -1.5386096239089966,
        -0.15452681481838226,
        -0.22263789176940918
      ],
      "type": "VEC3"
    },
    {
      "bufferView": 2,
      "byteOffset": 2569164,
      "componentType": 5126,
      "count": 18603,
      "max": [
        0.9999985694885254,
        1.0,
        1.0
      ],
      "min": [
        -0.9999994039535522,
        -1.0,
        -0.9999978542327881
      ],
      "type": "VEC3"
    },
    {
      "bufferView": 1,
      "byteOffset": 781976,
      "componentType": 5126,
      "count": 18603,
      "max": [
        0.8750001192092896,
        1.0000001192092896
      ],
      "min": [
        0.1250000149011612,
        0.0
      ],
      "type": "VEC2"
    },
    {
      "bufferView": 0,
      "byteOffset": 761856,
      "componentType": 5125,
      "count": 99072,
      "type": "SCALAR"
    },
    {
      "bufferView": 2,
      "byteOffset": 2792400,
      "componentType": 5126,
      "count": 65532,
      "max": [
        1.2245372533798218,
        0.16943825781345367,
        2.571031093597412
      ],
      "min": [
        -1.5386096239089966,
        -0.15452681481838226,
        -0.22263789176940918
      ],
      "type": "VEC3"
    },
    {
      "bufferView": 2,
      "byteOffset": 3578784,
      "componentType": 5126,
      "count": 65532,
      "max": [
        0.9966740012168884,
        0.9964926838874817,
        0.9992834329605103
      ],
      "min": [
        -0.9990317821502686,
        -0.9964926242828369,
        -0.9992482662200928
      ],
      "type": "VEC3"
    },
    {
      "bufferView": 1,
      "byteOffset": 930800,
      "componentType": 5126,
      "count": 65532,
      "max": [
        1.0000001192092896,
        0.7831461429595947
      ],
      "min": [
        0.0,
        0.0
      ],
      "type": "VEC2"
    },
    {
      "bufferView": 0,
      "byteOffset": 1158144,
      "componentType": 5125,
      "count": 98298,
      "type": "SCALAR"
    },
    {
      "bufferView": 2,
      "byteOffset": 4365168,
      "componentType": 5126,
      "count": 516,
      "max": [
        -1.2383408546447754,
        0.13187330961227417,
        1.6553658246994019
      ],
      "min": [
        -1.3378825187683105,
        -0.06847301870584488,
        1.477604627609253
      ],
      "type": "VEC3"
    },
    {
      "bufferView": 2,
      "byteOffset": 4371360,
      "componentType": 5126,
      "count": 516,
      "max": [
        -0.31980225443840027,
        0.6056181788444519,
        0.9405434131622314
      ],
      "min": [
        -0.9762710332870483,
        -0.6056162118911743,
        0.15911822021007538
      ],
      "type": "VEC3"
    },
    {
      "bufferView": 1,
      "byteOffset": 1455056,
      "componentType": 5126,
      "count": 516,
      "max": [
        0.7499999403953552,
        0.07360544055700302
      ],
      "min": [
        0.6666665077209473,
        0.0
      ],
      "type": "VEC2"
    },
    {
      "bufferView": 0,
      "byteOffset": 1551336,
      "componentType": 5125,
      "count": 774,
      "type": "SCALAR"
    },
    {
      "bufferView": 2,
      "byteOffset": 4377552,
      "componentType": 5126,
      "count": 65532,
      "max": [
        -0.03897029533982277,
        6.269372463226318,
        2.3495492935180664
      ],
      "min": [
        -7.842906475067139,
        -0.9975766539573669,
        -2.81539249420166
      ],
      "type": "VEC3"
    },
    {
      "bufferView": 2,
      "byteOffset": 5163936,
      "componentType": 5126,
      "count": 65532,
      "max": [
        0.9993998408317566,
        0.9969545602798462,
        0.9993996024131775
      ],
      "min": [
        -0.9994001984596252,
        -0.999066174030304,
        -0.9999832510948181
      ],
      "type": "VEC3"
    },
    {
      "bufferView": 1,
      "byteOffset": 1459184,
      "componentType": 5126,
      "count": 65532,
      "max": [
        1.0000001192092896,
        1.0000001192092896
      ],
      "min": [
        0.0,
        0.0
      ],
      "type": "VEC2"
    },
    {
      "bufferView": 0,
      "byteOffset": 1554432,
      "componentType": 5125,
      "count": 98298,
      "type": "SCALAR"
    },
    {
      "bufferView": 2,
      "byteOffset": 5950320,
      "componentType": 5126,
      "count": 65532,
      "max": [
        0.9872310161590576,
        6.891615867614746,
        2.4244003295898438
      ],
      "min": [
        -3.8663291931152344,
        -0.9975767135620117,
        -2.81539249420166
      ],
      "type": "VEC3"
    },
    {
      "bufferView": 2,
      "byteOffset": 6736704,
      "componentType": 5126,
      "count": 65532,
      "max": [
        0.9993996620178223,
        0.9969545006752014,
        0.999399721622467
      ],
      "min": [
        -0.9993996024131775,
        -0.9990662336349487,
        -0.9999831914901733
      ],
      "type": "VEC3"
    },
    {
      "bufferView": 1,
      "byteOffset": 1983440,
      "componentType": 5126,
      "count": 65532,
      "max": [
        1.0000001192092896,
        1.0000001192092896
      ],
      "min": [
        0.0,
        0.0
      ],
      "type": "VEC2"
    },
    {
      "bufferView": 0,
      "byteOffset": 1947624,
      "componentType": 5125,
      "count": 98298,
      "type": "SCALAR"
    },
    {
      "bufferView": 2,
      "byteOffset": 7523088,
      "componentType": 5126,
      "count": 65532,
      "max": [
        0.273032009601593,
        7.606773376464844,
        2.4410762786865234
      ],
      "min": [
        -3.4172909259796143,
        4.484547138214111,
        1.7114853858947754
      ],
      "type": "VEC3"
    },
    {
      "bufferView": 2,
      "byteOffset": 8309472,
      "componentType": 5126,
      "count": 65532,
      "max": [
        0.999130368232727,
        0.9990663528442383,
        0.9999831914901733
      ],
      "min": [
        -0.9991309642791748,
        -0.9990682601928711,
        -0.9999831914901733
      ],
      "type": "VEC3"
    },
    {
      "bufferView": 1,
      "byteOffset": 2507696,
      "componentType": 5126,
      "count": 65532,
      "max": [
        1.0000001192092896,
        1.0000001192092896
      ],
      "min": [
        0.0,
        0.0
      ],
      "type": "VEC2"
    },
    {
      "bufferView": 0,
      "byteOffset": 2340816,
      "componentType": 5125,
      "count": 98298,
      "type": "SCALAR"
    },
    {
      "bufferView": 2,
      "byteOffset": 9095856,
      "componentType": 5126,
      "count": 57356,
      "max": [
        -1.2881171703338623,
        6.984525203704834,
        2.366225004196167
      ],
      "min": [
        -3.881812572479248,
        5.237794876098633,
        1.8020946979522705
      ],
      "type": "VEC3"
    },
    {
      "bufferView": 2,
      "byteOffset": 9784128,
      "componentType": 5126,
      "count": 57356,
      "max": [
        0.9991306066513062,
        0.9990661144256592,
        0.9999832510948181
      ],
      "min": [
        -0.9991310238838196,
        -0.9990682601928711,
        -0.9999831914901733
      ],
      "type": "VEC3"
    },
    {
      "bufferView": 1,
      "byteOffset": 3031952,
      "componentType": 5126,
      "count": 57356,
      "max": [
        1.0000001192092896,
        1.0000001192092896
      ],
      "min": [
        0.0,
        0.0
      ],
      "type": "VEC2"
    },
    {
      "bufferView": 0,
      "byteOffset": 2734008,
      "componentType": 5125,
      "count": 86034,
      "type": "SCALAR"
    },
    {
      "bufferView": 2,
      "byteOffset": 10472400,
      "componentType": 5126,
      "count": 65532,
      "max": [
        4.023507118225098,
        8.90343189239502,
        1.390775139498146e-07
      ],
      "min": [
        -0.5419763326644897,
        -0.9935951232910156,
        -1.072421908378601
      ],
      "type": "VEC3"
    },
    {
      "bufferView": 2,
      "byteOffset": 11258784,
      "componentType": 5126,
      "count": 65532,
      "max": [
        0.9950602650642395,
        0.9992889165878296,
        0.06433892995119095
      ],
      "min": [
        -0.9950599670410156,
        -0.99928879737854,
        -0.9998497366905212
      ],
      "type": "VEC3"
    },
    {
      "bufferView": 1,
      "byteOffset": 3490800,
      "componentType": 5126,
      "count": 65532,
      "max": [
        1.0000001192092896,
        1.0000001192092896
      ],
      "min": [
        0.4999999701976776,
        0.0
      ],
      "type": "VEC2"
    },
    {
      "bufferView": 0,
      "byteOffset": 3078144,
      "componentType": 5125,
      "count": 98298,
      "type": "SCALAR"
    },
    {
      "bufferView": 2,
      "byteOffset": 12045168,
      "componentType": 5126,
      "count": 65532,
      "max": [
        5.529902935028076,
        9.740452766418457,
        7.947286917442398e-08
      ],
      "min": [
        -0.9935944676399231,
        -0.9935951232910156,
        -0.987231969833374
      ],
      "type": "VEC3"
    },
    {
      "bufferView": 2,
      "byteOffset": 12831552,
      "componentType": 5126,
      "count": 65532,
      "max": [
        0.9782385230064392,
        0.9992873072624207,
        0.0640733540058136
      ],
      "min": [
        -0.9950599074363708,
        -0.9992873668670654,
        -0.9998497366905212
      ],
      "type": "VEC3"
    },
    {
      "bufferView": 1,
      "byteOffset": 4015056,
      "componentType": 5126,
      "count": 65532,
      "max": [
        1.0000001192092896,
        1.0000001192092896
      ],
      "min": [
        0.4999999701976776,
        0.0
      ],
      "type": "VEC2"
    },
    {
      "bufferView": 0,
      "byteOffset": 3471336,
      "componentType": 5125,
      "count": 98298,
      "type": "SCALAR"
    },
    {
      "bufferView": 2,
      "byteOffset": 13617936,
      "componentType": 5126,
      "count": 65532,
      "max": [
        6.330899238586426,
        9.740452766418457,
        -5.761783086200012e-07
      ],
      "min": [
        4.023505687713623,
        3.107799530029297,
        -1.0913912057876587
      ],
      "type": "VEC3"
    },
    {
      "bufferView": 2,
      "byteOffset": 14404320,
      "componentType": 5126,
      "count": 65532,
      "max": [
        0.9950612187385559,
        0.9992884397506714,
        0.06412873417139053
      ],
      "min": [
        -0.9950641989707947,
        -0.9992891550064087,
        -0.9998497366905212
      ],
      "type": "VEC3"
    },
    {
      "bufferView": 1,
      "byteOffset": 4539312,
      "componentType": 5126,
      "count": 65532,
      "max": [
        1.0000001192092896,
        1.0000001192092896
      ],
      "min": [
        0.4999999701976776,
        0.0
      ],
      "type": "VEC2"
    },
    {
      "bufferView": 0,
      "byteOffset": 3864528,
      "componentType": 5125,
      "count": 98298,
      "type": "SCALAR"
    },
    {
      "bufferView": 2,
      "byteOffset": 15190704,
      "componentType": 5126,
      "count": 57356,
      "max": [
        5.017101764678955,
        5.094990253448486,
        -0.10415993630886078
      ],
      "min": [
        3.029912233352661,
        3.107799530029297,
        -1.0913912057876587
      ],
      "type": "VEC3"
    },
    {
      "bufferView": 2,
      "byteOffset": 15878976,
      "componentType": 5126,
      "count": 57356,
      "max": [
        0.9950603246688843,
        0.9992903470993042,
        0.06404679268598557
      ],
      "min": [
        -0.9950616359710693,
        -0.9992873668670654,
        -0.9998496770858765
      ],
      "type": "VEC3"
    },
    {
      "bufferView": 1,
      "byteOffset": 5063568,
      "componentType": 5126,
      "count": 57356,
      "max": [
        1.0000001192092896,
        1.0000001192092896
      ],
      "min": [
        0.4999999701976776,
        0.0
      ],
      "type": "VEC2"
    },
    {
      "bufferView": 0,
      "byteOffset": 4257720,
      "componentType": 5125,
      "count": 86034,
      "type": "SCALAR"
    },
    {
      "bufferView": 2,
      "byteOffset": 16567248,
      "componentType": 5126,
      "count": 23808,
      "max": [
        0.9872310161590576,
        1.080115556716919,
        3.230581521987915
      ],
      "min": [
        -4.00937032699585,
        -1.7758078575134277,
        -0.9872310161590576
      ],
      "type": "VEC3"
    },
    {
      "bufferView": 2,
      "byteOffset": 16852944,
      "componentType": 5126,
      "count": 23808,
      "max": [
        0.9976068735122681,
        0.9959306716918945,
        0.9976069927215576
      ],
      "min": [
        -0.9976069927215576,
        -0.9959309697151184,
        -0.9976068735122681
      ],
      "type": "VEC3"
    },
    {
      "bufferView": 1,
      "byteOffset": 5522416,
      "componentType": 5126,
      "count": 23808,
      "max": [
        1.0,
        0.8240724802017212
      ],
      "min": [
        0.0,
        0.1666666567325592
      ],
      "type": "VEC2"
    },
    {
      "bufferView": 0,
      "byteOffset": 4601856,
      "componentType": 5125,
      "count": 35712,
      "type": "SCALAR"
    },
    {
      "bufferView": 2,
      "byteOffset": 17138640,
      "componentType": 5126,
      "count": 37476,
      "max": [
        1.7994639873504639,
        0.16943825781345367,
        3.4300801753997803
      ],
      "min": [
        -2.312869071960449,
        -0.1661444902420044,
        -0.22329728305339813
      ],
      "type": "VEC3"
    },
    {
      "bufferView": 2,
      "byteOffset": 17588352,
      "componentType": 5126,
      "count": 37476,
      "max": [
        0.9999977350234985,
        1.0,
        0.9999996423721313
      ],
      "min": [
        -0.9999999403953552,
        -1.0,
        -1.0
      ],
      "type": "VEC3"
    },
    {
      "bufferView": 1,
      "byteOffset": 5712880,
      "componentType": 5126,
      "count": 37476,
      "max": [
        0.9820761680603027,
        1.0000001192092896
      ],
      "min": [
        0.0,
        0.0
      ],
      "type": "VEC2"
    },
    {
      "bufferView": 0,
      "byteOffset": 4744704,
      "componentType": 5125,
      "count": 198144,
      "type": "SCALAR"
    },
    {
      "bufferView": 2,
      "byteOffset": 18038064,
      "componentType": 5126,
      "count": 3968,
      "max": [
        0.993695080280304,
        0.9935951232910156,
        0.9765621423721313
      ],
      "min": [
        -0.6893416047096252,
        0.0,
        -0.6963179707527161
      ],
      "type": "VEC3"
    },
    {
      "bufferView": 2,
      "byteOffset": 18085680,
      "componentType": 5126,
      "count": 3968,
      "max": [
        0.9896052479743958,
        0.9956373572349548,
        0.9906103014945984
      ],
      "min": [
        -0.5838175415992737,
        0.09482546150684357,
        -0.6278514266014099
      ],
      "type": "VEC3"
    },
    {
      "bufferView": 1,
      "byteOffset": 6012688,
      "componentType": 5126,
      "count": 3968,
      "max": [
        0.6250000596046448,
        1.0000001192092896
      ],
      "min": [
        0.4999999701976776,
        0.5
      ],
      "type": "VEC2"
    },
    {
      "bufferView": 0,
      "byteOffset": 5537280,
      "componentType": 5125,
      "count": 5952,
      "type": "SCALAR"
    },
    {
      "bufferView": 2,
      "byteOffset": 18133296,
      "componentType": 5126,
      "count": 3456,
      "max": [
        1.5205574035644531,
        1.0,
        8.370180130004883
      ],
      "min": [
        -26.82514762878418,
        -1.6160701513290405,
        -2.388151168823242
      ],
      "type": "VEC3"
    },
    {
      "bufferView": 2,
      "byteOffset": 18174768,
      "componentType": 5126,
      "count": 3456,
      "max": [
        0.9951848387718201,
        1.0,
        0.9951848387718201
      ],
      "min": [
        -0.9951848387718201,
        -1.0,
        -0.9951848387718201
      ],
      "type": "VEC3"
    },
    {
      "bufferView": 1,
      "byteOffset": 6044432,
      "componentType": 5126,
      "count": 3456,
      "max": [
        1.0,
        1.0
      ],
      "min": [
        0.0,
        0.01000000536441803
      ],
      "type": "VEC2"
    },
    {
      "bufferView": 0,
      "byteOffset": 5561088,
      "componentType": 5125,
      "count": 6696,
      "type": "SCALAR"
    }
  ],
  "asset": {
    "extras": {
      "author": "AnkerMan (https://sketchfab.com/AnkerMan)",
      "license": "CC-BY-4.0 (http://creativecommons.org/licenses/by/4.0/)",
      "source": "https://sketchfab.com/3d-models/animal-cell-3d-model-807f53a65f654bfa929d2c6f7955decf",
      "title": "Animal Cell 3D Model"
    },
    "generator": "Sketchfab-14.87.0",
    "version": "2.0"
  },
  "bufferViews": [
    {
      "buffer": 0,
      "byteLength": 5587872,
      "name": "floatBufferViews",
      "target": 34963
    },
    {
      "buffer": 0,
      "byteLength": 6072080,
      "byteOffset": 5587872,
      "byteStride": 8,
      "name": "floatBufferViews",
      "target": 34962
    },
    {
      "buffer": 0,
      "byteLength": 18216240,
      "byteOffset": 11659952,
      "byteStride": 12,
      "name": "floatBufferViews",
      "target": 34962
    }
  ],
  "buffers": [
    {
      "byteLength": 29876192,
      "uri": "scene.bin"
    }
  ],
  "extensionsUsed": [
    "KHR_texture_transform"
  ],
  "images": [
    {
      "uri": "textures/Cell_Wall_baseColor.jpeg"
    },
    {
      "uri": "textures/Vacuole_baseColor.jpeg"
    },
    {
      "uri": "textures/Rough_Endoplasmic_Reticulum_baseColor.jpeg"
    },
    {
      "uri": "textures/Lysosome_baseColor.jpeg"
    },
    {
      "uri": "textures/Mitochondria_baseColor.jpeg"
    }
  ],
  "materials": [
    {
      "doubleSided": true,
      "name": "Cell_Wall",
      "pbrMetallicRoughness": {
        "baseColorTexture": {
          "extensions": {
            "KHR_texture_transform": {
              "offset": [
                0,
                -4
              ],
              "scale": [
                5,
                5
              ]
            }
          },
          "index": 0
        },
        "metallicFactor": 0.0,
        "roughnessFactor": 0.5
      }
    },
    {
      "doubleSided": true,
      "name": "Nucleas",
      "pbrMetallicRoughness": {
        "baseColorFactor": [
          0.8,
          0.693157,
          0.0,
          1.0
        ],
        "metallicFactor": 0.0,
        "roughnessFactor": 0.5
      }
    },
    {
      "doubleSided": true,
      "name": "Nucleolus",
      "pbrMetallicRoughness": {
        "baseColorFactor": [
          0.23561000000000001,
          0.0,
          0.8,
          1.0
        ],
        "metallicFactor": 0.0,
        "roughnessFactor": 0.5
      }
    },
    {
      "doubleSided": true,
      "name": "Vacuole",
      "pbrMetallicRoughness": {
        "baseColorTexture": {
          "index": 1
        },
        "metallicFactor": 0.0,
        "roughnessFactor": 0.5
      }
    },
    {
      "alphaMode": "BLEND",
      "doubleSided": true,
      "name": "Nuclear_Membrane",
      "pbrMetallicRoughness": {
        "baseColorFactor": [
          0.8,
          0.184857,
          0.237914,
          0.5836208262729943
        ],
        "metallicFactor": 0.0,
        "roughnessFactor": 0.5
      }
    },
    {
      "doubleSided": true,
      "name": "Smooth_Endoplasmic_Reticulum",
      "pbrMetallicRoughness": {
        "baseColorFactor": [
          0.0336353,
          0.668398,
          0.8,
          1.0
        ],
        "metallicFactor": 0.0,
        "roughnessFactor": 0.5
      }
    },
    {
      "doubleSided": true,
      "name": "Rough_Endoplasmic_Reticulum",
      "pbrMetallicRoughness": {
        "baseColorTexture": {
          "index": 2
        },
        "metallicFactor": 0.0,
        "roughnessFactor": 0.5
      }
    },
    {
      "doubleSided": true,
      "name": "Lysosome",
      "pbrMetallicRoughness": {
        "baseColorTexture": {
          "index": 3
        },
        "metallicFactor": 0.0,
        "roughnessFactor": 0.5
      }
    },
    {
      "doubleSided": true,
      "name": "Ribosome",
      "pbrMetallicRoughness": {
        "baseColorFactor": [
          0.0,
          0.8,
          0.692648,
          1.0
        ],
        "metallicFactor": 0.0,
        "roughnessFactor": 0.5
      }
    },
    {
      "doubleSided": true,
      "name": "Mitochondria",
      "pbrMetallicRoughness": {
        "baseColorTexture": {
          "index": 4
        },
        "metallicFactor": 0.0,
        "roughnessFactor": 0.5
      }
    },
    {
      "doubleSided": true,
      "name": "Golgi_Complex",
      "pbrMetallicRoughness": {
        "baseColorFactor": [
          0.0,
          0.8,
          0.00131236,
          1.0
        ],
        "metallicFactor": 0.0
      }
    },
    {
      "doubleSided": true,
      "name": "Centriole",
      "pbrMetallicRoughness": {
        "baseColorFactor": [
          0.8,
          0.106449,
          0.710416,
          1.0
        ],
        "metallicFactor": 0.0,
        "roughnessFactor": 0.5
      }
    }
  ],
  "meshes": [
    {
      "name": "Object_0",
      "primitives": [
        {
          "attributes": {
            "NORMAL": 1,
            "POSITION": 0,
            "TEXCOORD_0": 2
          },
          "indices": 3,
          "material": 0,
          "mode": 4
        }
      ]
    },
    {
      "name": "Object_1",
      "primitives": [
        {
          "attributes": {
            "NORMAL": 5,
            "POSITION": 4,
            "TEXCOORD_0": 6
          },
          "indices": 7,
          "material": 1,
          "mode": 4
        }
      ]
    },
    {
      "name": "Object_2",
      "primitives": [
        {
          "attributes": {
            "NORMAL": 9,
            "POSITION": 8,
            "TEXCOORD_0": 10
          },
          "indices": 11,
          "material": 2,
          "mode": 4
        }
      ]
    },
    {
      "name": "Object_3",
      "primitives": [
        {
          "attributes": {
            "NORMAL": 13,
            "POSITION": 12,
            "TEXCOORD_0": 14
          },
          "indices": 15,
          "material": 3,
          "mode": 4
        }
      ]
    },
    {
      "name": "Object_4",
      "primitives": [
        {
          "attributes": {
            "NORMAL": 17,
            "POSITION": 16,
            "TEXCOORD_0": 18
          },
          "indices": 19,
          "material": 4,
          "mode": 4
        }
      ]
    },
    {
      "name": "Object_5",
      "primitives": [
        {
          "attributes": {
            "NORMAL": 21,
            "POSITION": 20,
            "TEXCOORD_0": 22
          },
          "indices": 23,
          "material": 5,
          "mode": 4
        }
      ]
    },
    {
      "name": "Object_6",
      "primitives": [
        {
          "attributes": {
            "NORMAL": 25,
            "POSITION": 24,
            "TEXCOORD_0": 26
          },
          "indices": 27,
          "material": 6,
          "mode": 4
        }
      ]
    },
    {
      "name": "Object_7",
      "primitives": [
        {
          "attributes": {
            "NORMAL": 29,
            "POSITION": 28,
            "TEXCOORD_0": 30
          },
          "indices": 31,
          "material": 6,
          "mode": 4
        }
      ]
    },
    {
      "name": "Object_8",
      "primitives": [
        {
          "attributes": {
            "NORMAL": 33,
            "POSITION": 32,
            "TEXCOORD_0": 34
          },
          "indices": 35,
          "material": 7,
          "mode": 4
        }
      ]
    },
    {
      "name": "Object_9",
      "primitives": [
        {
          "attributes": {
            "NORMAL": 37,
            "POSITION": 36,
            "TEXCOORD_0": 38
          },
          "indices": 39,
          "material": 7,
          "mode": 4
        }
      ]
    },
    {
      "name": "Object_10",
      "primitives": [
        {
          "attributes": {
            "NORMAL": 41,
            "POSITION": 40,
            "TEXCOORD_0": 42
          },
          "indices": 43,
          "material": 7,
          "mode": 4
        }
      ]
    },
    {
      "name": "Object_11",
      "primitives": [
        {
          "attributes": {
            "NORMAL": 45,
            "POSITION": 44,
            "TEXCOORD_0": 46
          },
          "indices": 47,
          "material": 7,
          "mode": 4
        }
      ]
    },
    {
      "name": "Object_12",
      "primitives": [
        {
          "attributes": {
            "NORMAL": 49,
            "POSITION": 48,
            "TEXCOORD_0": 50
          },
          "indices": 51,
          "material": 8,
          "mode": 4
        }
      ]
    },
    {
      "name": "Object_13",
      "primitives": [
        {
          "attributes": {
            "NORMAL": 53,
            "POSITION": 52,
            "TEXCOORD_0": 54
          },
          "indices": 55,
          "material": 8,
          "mode": 4
        }
      ]
    },
    {
      "name": "Object_14",
      "primitives": [
        {
          "attributes": {
            "NORMAL": 57,
            "POSITION": 56,
            "TEXCOORD_0": 58
          },
          "indices": 59,
          "material": 8,
          "mode": 4
        }
      ]
    },
    {
      "name": "Object_15",
      "primitives": [
        {
          "attributes": {
            "NORMAL": 61,
            "POSITION": 60,
            "TEXCOORD_0": 62
          },
          "indices": 63,
          "material": 8,
          "mode": 4
        }
      ]
    },
    {
      "name": "Object_16",
      "primitives": [
        {
          "attributes": {
            "NORMAL": 65,
            "POSITION": 64,
            "TEXCOORD_0": 66
          },
          "indices": 67,
          "material": 9,
          "mode": 4
        }
      ]
    },
    {
      "name": "Object_17",
      "primitives": [
        {
          "attributes": {
            "NORMAL": 69,
            "POSITION": 68,
            "TEXCOORD_0": 70
          },
          "indices": 71,
          "material": 10,
          "mode": 4
        }
      ]
    },
    {
      "name": "Object_18",
      "primitives": [
        {
          "attributes": {
            "NORMAL": 73,
            "POSITION": 72,
            "TEXCOORD_0": 74
          },
          "indices": 75,
          "material": 4,
          "mode": 4
        }
      ]
    },
    {
      "name": "Object_19",
      "primitives": [
        {
          "attributes": {
            "NORMAL": 77,
            "POSITION": 76,
            "TEXCOORD_0": 78
          },
          "indices": 79,
          "material": 11,
          "mode": 4
        }
      ]
    }
  ],
  "nodes": [
    {
      "children": [
        1
      ],
      "matrix": [
        1.0,
        0.0,
        0.0,
        0.0,
        0.0,
        2.220446049250313e-16,
        -1.0,
        0.0,
        0.0,
        1.0,
        2.220446049250313e-16,
        0.0,
        0.0,
        0.0,
        0.0,
        1.0
      ],
      "name": "Sketchfab_model"
    },
    {
      "children": [
        2
      ],
      "name": "root"
    },
    {
      "children": [
        3,
        5,
        7,
        9,
        11,
        13,
        15,
        18,
        23,
        28,
        30,
        32,
        34
      ],
      "matrix": [
        1.0,
        0.0,
        0.0,
        0.0,
        0.0,
        2.220446049250313e-16,
        1.0,
        0.0,
        0.0,
        -1.0,
        2.220446049250313e-16,
        0.0,
        0.0,
        0.0,
        0.0,
        1.0
      ],
      "name": "GLTF_SceneRootNode"
    },
    {
      "children": [
        4
      ],
      "matrix": [
        0.999987504355188,
        0.0049975800863839796,
        -0.00012380130444547988,
        0.0,
        -0.00043148216715811673,
        0.061611955712981836,
        -0.9981000855306851,
        0.0,
        -0.004980457471179594,
        0.9980876670445847,
        0.0616133421985533,
        0.0,
        -0.02288881503045559,
        2.5418083667755127,
        -0.5601383447647095,
        1.0
      ],
      "name": "Cell Membrane_1"
    },
    {
      "mesh": 0,
      "name": "Object_4"
    },
    {
      "children": [
        6
      ],
      "matrix": [
        0.3453966975212097,
        0.0,
        0.0,
        0.0,
        0.0,
        0.3453966975212097,
        0.0,
        0.0,
        0.0,
        0.0,
        0.3453966975212097,
        0.0,
        0.0,
        2.5314395427703857,
        -0.09058213979005814,
        1.0
      ],
      "name": "Nucleas_2"
    },
    {
      "mesh": 1,
      "name": "Object_6"
    },
    {
      "children": [
        8
      ],
      "matrix": [
        0.16747507452964783,
        0.0,
        0.0,
        0.0,
        0.0,
        0.16747507452964783,
        0.0,
        0.0,
        0.0,
        0.0,
        0.16747507452964783,
        0.0,
        0.0028066635131835938,
        2.6140356063842773,
        -0.21662135422229767,
        1.0
      ],
      "name": "Nucleolus_3"
    },
    {
      "mesh": 2,
      "name": "Object_8"
    },
    {
      "children": [
        10
      ],
      "matrix": [
        0.12026126682758331,
        0.0,
        0.0,
        0.0,
        0.0,
        0.20402169227600098,
        0.0,
        0.0,
        0.0,
        0.0,
        0.20402169227600098,
        0.0,
        -0.45508044958114624,
        3.1227333545684814,
        -0.012157144024968147,
        1.0
      ],
      "name": "Vacuole_4"
    },
    {
      "mesh": 3,
      "name": "Object_10"
    },
    {
      "children": [
        12
      ],
      "matrix": [
        0.35153335332870483,
        0.0,
        0.0,
        0.0,
        0.0,
        0.35153335332870483,
        0.0,
        0.0,
        0.0,
        0.0,
        0.35153335332870483,
        0.0,
        0.0008743405342102051,
        2.5895609855651855,
        -0.08980205655097961,
        1.0
      ],
      "name": "Nuclear Membrane_5"
    },
    {
      "mesh": 4,
      "name": "Object_12"
    },
    {
      "children": [
        14
      ],
      "matrix": [
        0.09773125183031496,
        0.0,
        0.028350887081189567,
        0.0,
        0.0,
        0.24308860301971436,
        0.0,
        0.0,
        -0.06533303671966327,
        0.0,
        0.22521621444166523,
        0.0,
        -0.12450313568115234,
        2.5925168991088867,
        -0.7679507732391357,
        1.0
      ],
      "name": "Smooth Endoplasmic Reticulum_6"
    },
    {
      "mesh": 5,
      "name": "Object_14"
    },
    {
      "children": [
        16,
        17
      ],
      "matrix": [
        -0.016378032757195366,
        -0.0061614781455743605,
        -0.0743246109382253,
        -0.0,
        -0.008980051065303018,
        0.21108797459992193,
        -0.015520274606494943,
        0.0,
        -0.13274242513677828,
        -0.00347523749462211,
        0.029538969115603768,
        0.0,
        -0.331999808549881,
        2.5985915660858154,
        -0.3417443633079529,
        1.0
      ],
      "name": "Rough Endoplasmi Reticulum_7"
    },
    {
      "mesh": 6,
      "name": "Object_16"
    },
    {
      "mesh": 7,
      "name": "Object_17"
    },
    {
      "children": [
        19,
        20,
        21,
        22
      ],
      "matrix": [
        0.11996594816446304,
        0.0,
        0.0,
        0.0,
        0.0,
        0.09268789738416672,
        0.0,
        0.0,
        0.0,
        0.0,
        0.16479450464248657,
        0.0,
        0.6335151791572571,
        2.5358147621154785,
        -0.3825593888759613,
        1.0
      ],
      "name": "Lysosome_8"
    },
    {
      "mesh": 8,
      "name": "Object_19"
    },
    {
      "mesh": 9,
      "name": "Object_20"
    },
    {
      "mesh": 10,
      "name": "Object_21"
    },
    {
      "mesh": 11,
      "name": "Object_22"
    },
    {
      "children": [
        24,
        25,
        26,
        27
      ],
      "matrix": [
        0.021525448188185692,
        0.0,
        0.0,
        0.0,
        0.0,
        0.02111666649580002,
        0.0,
        0.0,
        0.0,
        0.0,
        0.03651764243841171,
        0.0,
        -0.8014281988143921,
        2.741457939147949,
        -0.031134702265262604,
        1.0
      ],
      "name": "Ribisome_9"
    },
    {
      "mesh": 12,
      "name": "Object_24"
    },
    {
      "mesh": 13,
      "name": "Object_25"
    },
    {
      "mesh": 14,
      "name": "Object_26"
    },
    {
      "mesh": 15,
      "name": "Object_27"
    },
    {
      "children": [
        29
      ],
      "matrix": [
        -0.007094402460689829,
        -0.05118062214462897,
        -0.008180455466348302,
        -0.0,
        -1.0194251830185038e-08,
        -0.00464581101140449,
        0.02906629969814095,
        -0.0,
        0.08462433622588,
        -0.011437998854394315,
        -0.0018281624732501185,
        -0.0,
        -0.20315580070018768,
        3.034015655517578,
        -0.0736711397767067,
        1.0
      ],
      "name": "Mitochondria_10"
    },
    {
      "mesh": 16,
      "name": "Object_29"
    },
    {
      "children": [
        31
      ],
      "matrix": [
        0.016053739498993892,
        -0.0,
        -0.03094890075911548,
        -0.0,
        0.0,
        -0.14028190076351166,
        0.0,
        -0.0,
        0.11121295964708161,
        -0.0,
        0.05768811942571216,
        -0.0,
        -0.26516830921173096,
        2.591913938522339,
        -0.9216535091400146,
        1.0
      ],
      "name": "Golgi Complex_11"
    },
    {
      "mesh": 17,
      "name": "Object_31"
    },
    {
      "children": [
        33
      ],
      "matrix": [
        -0.6658321037339808,
        0.0,
        -0.7090058500502935,
        0.0,
        0.0,
        0.9726364612579346,
        0.0,
        0.0,
        0.7565378816457554,
        0.0,
        -0.7104697503623006,
        0.0,
        -0.02455577254295349,
        2.5213918685913086,
        0.01123606413602829,
        1.0
      ],
      "name": "Cytoplasm_12"
    },
    {
      "mesh": 18,
      "name": "Object_33"
    },
    {
      "children": [
        35
      ],
      "matrix": [
        -0.030033817894621798,
        0.0038886659820458365,
        0.0,
        -0.0,
        -0.01763151392751657,
        -0.1361756656268347,
        0.0,
        -0.0,
        0.0,
        0.0,
        -0.030416002497076988,
        -0.0,
        -0.4934840202331543,
        2.658940076828003,
        -0.6634460091590881,
        1.0
      ],
      "name": "Centriole_13"
    },
    {
      "mesh": 19,
      "name": "Object_35"
    }
  ],
  "samplers": [
    {
      "magFilter": 9729,
      "minFilter": 9987,
      "wrapS": 10497,
      "wrapT": 10497
    }
  ],
  "scene": 0,
  "scenes": [
    {
      "name": "Sketchfab_Scene",
      "nodes": [
        0
      ]
    }
  ],
  "textures": [
    {
      "sampler": 0,
      "source": 0
    },
    {
      "sampler": 0,
      "source": 1
    },
    {
      "sampler": 0,
      "source": 2
    },
    {
      "sampler": 0,
      "source": 3
    },
    {
      "sampler": 0,
      "source": 4
    }
  ]
}
